<svg width="35" height="36" viewBox="0 0 35 36" fill="none" xmlns="http://www.w3.org/2000/svg">
<path fill-rule="evenodd" clip-rule="evenodd" d="M11.7722 5.11152C11.925 4.7042 12.1985 4.35321 12.5561 4.1054C12.9136 3.85759 13.3383 3.72476 13.7733 3.72466H21.694C22.1293 3.72447 22.5543 3.85717 22.9121 4.10499C23.27 4.35282 23.5437 4.70397 23.6966 5.11152L32.2487 27.9171C32.3701 28.2406 32.4113 28.5888 32.3687 28.9317C32.3261 29.2747 32.201 29.6022 32.0042 29.8862C31.8073 30.1702 31.5445 30.4023 31.2383 30.5625C30.9321 30.7228 30.5917 30.8064 30.2461 30.8063H25.1761C24.7411 30.8061 24.3164 30.6733 23.9588 30.4255C23.6013 30.1777 23.3278 29.8267 23.1749 29.4194L17.7344 14.9108L14.9806 22.2542H17.7814C18.2167 22.254 18.6417 22.3867 18.9996 22.6345C19.3574 22.8823 19.6311 23.2335 19.784 23.641L21.3876 27.9171C21.509 28.2406 21.5501 28.5888 21.5076 28.9317C21.465 29.2747 21.3399 29.6022 21.143 29.8862C20.9461 30.1702 20.6834 30.4023 20.3772 30.5625C20.071 30.7228 19.7305 30.8064 19.3849 30.8063H5.22269C4.87723 30.8062 4.53694 30.7224 4.23094 30.562C3.92494 30.4017 3.66235 30.1696 3.46564 29.8856C3.26894 29.6016 3.14398 29.2742 3.10146 28.9314C3.05894 28.5885 3.10013 28.2405 3.2215 27.9171L11.7736 5.11152H11.7722ZM14.2665 6.57535L6.25179 27.9556H18.3587L17.2897 25.1049H12.9238C12.6936 25.1048 12.4668 25.0489 12.2628 24.9421C12.0589 24.8352 11.8839 24.6805 11.7527 24.4912C11.6216 24.302 11.5383 24.0838 11.5099 23.8553C11.4815 23.6268 11.5089 23.3948 11.5897 23.1792L16.4003 10.3511C16.5023 10.0797 16.6847 9.84593 16.9231 9.68091C17.1614 9.51588 17.4445 9.42747 17.7344 9.42747C18.0243 9.42747 18.3073 9.51588 18.5457 9.68091C18.7841 9.84593 18.9665 10.0797 19.0685 10.3511L25.6707 27.9556H29.2184L21.2008 6.57535H14.2679H14.2665Z" fill="#A09FAF"/>
</svg>
