<svg width="35" height="36" viewBox="0 0 35 36" fill="none" xmlns="http://www.w3.org/2000/svg">
<path fill-rule="evenodd" clip-rule="evenodd" d="M17.0428 2.55584C17.2822 2.38843 17.5673 2.29865 17.8595 2.29865C18.1517 2.29865 18.4368 2.38843 18.6762 2.55584L32.9297 12.5331C33.1177 12.6645 33.2712 12.8394 33.3772 13.0429C33.4831 13.2464 33.5384 13.4724 33.5383 13.7018V23.6791C33.5384 23.9085 33.4831 24.1346 33.3772 24.338C33.2712 24.5415 33.1177 24.7164 32.9297 24.8479L18.6762 34.8251C18.4368 34.9925 18.1517 35.0823 17.8595 35.0823C17.5673 35.0823 17.2822 34.9925 17.0428 34.8251L2.78929 24.8479C2.60127 24.7164 2.44776 24.5415 2.3418 24.338C2.23584 24.1346 2.18056 23.9085 2.18066 23.6791V13.7018C2.18056 13.4724 2.23584 13.2464 2.3418 13.0429C2.44776 12.8394 2.60127 12.6645 2.78929 12.5331L17.0428 2.55584ZM5.03136 16.4385V20.9425L8.24694 18.6905L5.03136 16.4385ZM10.7327 20.4294L6.09182 23.6791L16.4341 30.9197V24.4203L10.7327 20.4294ZM19.2848 24.4203V30.9197L29.6272 23.6791L24.9862 20.4294L19.2848 24.4203ZM27.472 18.6905L30.6876 20.9425V16.4385L27.472 18.6905ZM29.6272 13.7018L24.9862 16.9516L19.2848 12.9607V6.46122L29.6272 13.7018ZM16.4341 6.46122V12.9607L10.7327 16.9516L6.09182 13.7018L16.4341 6.46122ZM17.8595 15.4407L13.2186 18.6905L17.8595 21.9402L22.5004 18.6905L17.8595 15.4407Z" fill="#A09FAF"/>
</svg>
