<svg width="35" height="36" viewBox="0 0 35 36" fill="none" xmlns="http://www.w3.org/2000/svg">
<g style="mix-blend-mode:exclusion">
<path fill-rule="evenodd" clip-rule="evenodd" d="M22.5116 3.74319C22.695 3.41407 23.0013 3.17098 23.3635 3.06708C23.7257 2.96317 24.1143 3.00691 24.4443 3.18873L31.3387 6.9887C31.5031 7.07942 31.648 7.20174 31.765 7.34861C31.882 7.49548 31.9688 7.66402 32.0204 7.84455C32.0721 8.02507 32.0876 8.21403 32.066 8.40055C32.0444 8.58708 31.9862 8.7675 31.8946 8.93145L29.6027 13.0436C28.1097 15.7274 25.6738 17.7616 22.7667 18.7521L31.2005 23.4002C31.365 23.4908 31.51 23.613 31.6271 23.7598C31.7443 23.9066 31.8312 24.0751 31.883 24.2557C31.9348 24.4362 31.9504 24.6252 31.9289 24.8118C31.9074 24.9984 31.8493 25.1789 31.7578 25.3429L27.9379 32.1988C27.7542 32.5281 27.4475 32.7711 27.085 32.8748C26.7225 32.9784 26.3337 32.9342 26.0037 32.7519L16.3541 27.4325C15.9529 27.2103 15.48 27.1559 15.0389 27.2811C14.5977 27.4064 14.224 27.7011 13.9994 28.1009L11.7074 32.2116C11.524 32.5408 11.2177 32.7839 10.8555 32.8878C10.4933 32.9917 10.1047 32.9479 9.77466 32.7661L2.88025 28.9676C2.71585 28.8768 2.571 28.7545 2.45401 28.6077C2.33702 28.4608 2.2502 28.2922 2.19855 28.1117C2.14689 27.9312 2.13142 27.7422 2.15301 27.5557C2.1746 27.3692 2.23284 27.1888 2.32437 27.0248L4.61632 22.9127C6.10927 20.2288 8.54523 18.1946 11.4523 17.2042L3.01851 12.5561C2.85399 12.4655 2.709 12.3433 2.59186 12.1965C2.47473 12.0497 2.38777 11.8811 2.33598 11.7006C2.28419 11.5201 2.26859 11.3311 2.29008 11.1445C2.31157 10.9579 2.36973 10.7774 2.4612 10.6134L6.28113 3.75744C6.46483 3.42818 6.77151 3.18512 7.13402 3.08147C7.49653 2.97782 7.88534 3.02203 8.21533 3.20441L17.8664 8.5238C18.7059 8.98704 19.7592 8.68059 20.2182 7.85674L22.513 3.74319H22.5116ZM24.3118 6.3701L22.7097 9.2436C22.1179 10.301 21.1318 11.0814 19.9667 11.4144C18.8016 11.7474 17.5521 11.606 16.4909 11.021L8.08134 6.38578L5.6497 10.7502L14.0464 15.3783C18.6931 17.9396 24.5441 16.2663 27.114 11.6553L28.7104 8.79319L24.3132 6.3701H24.3118ZM20.174 20.578C15.5274 18.0166 9.67631 19.69 7.10641 24.301L5.51002 27.1631L9.90864 29.5862L11.5107 26.7127C12.1022 25.655 13.0883 24.8743 14.2535 24.5413C15.4187 24.2083 16.6684 24.3499 17.7295 24.9353L26.1376 29.5705L28.5707 25.2061L20.174 20.578Z" fill="#A09FAF"/>
</g>
</svg>
