<svg width="36" height="36" viewBox="0 0 36 36" fill="none" xmlns="http://www.w3.org/2000/svg">
<path fill-rule="evenodd" clip-rule="evenodd" d="M20.8351 8.0007C20.4571 8.0007 20.0945 8.15087 19.8272 8.41817C19.5599 8.68548 19.4098 9.04802 19.4098 9.42605C19.4098 9.80407 19.5599 10.1666 19.8272 10.4339C20.0945 10.7012 20.4571 10.8514 20.8351 10.8514C21.2131 10.8514 21.5757 10.7012 21.843 10.4339C22.1103 10.1666 22.2604 9.80407 22.2604 9.42605C22.2604 9.04802 22.1103 8.68548 21.843 8.41817C21.5757 8.15087 21.2131 8.0007 20.8351 8.0007ZM16.5591 9.42605C16.559 8.49901 16.8603 7.59708 17.4174 6.85613C17.9746 6.11519 18.7574 5.57537 19.648 5.31801C20.5386 5.06065 21.4887 5.09968 22.3552 5.42924C23.2217 5.75879 23.9576 6.36101 24.4521 7.14516C24.9465 7.92931 25.1728 8.85291 25.0967 9.77682C25.0207 10.7007 24.6464 11.5749 24.0303 12.2676C23.4143 12.9603 22.5898 13.4341 21.6811 13.6175C20.7723 13.8009 19.8286 13.684 18.9921 13.2845L16.1414 16.1352C16.4094 16.6925 16.5591 17.3182 16.5591 17.9781C16.5591 18.6381 16.4094 19.2638 16.1414 19.8211L18.9921 22.6718C19.9023 22.237 20.937 22.138 21.9131 22.3923C22.8892 22.6466 23.7441 23.2378 24.3265 24.0614C24.9089 24.885 25.1814 25.888 25.0958 26.8931C25.0102 27.8981 24.572 28.8406 23.8588 29.5539C23.1455 30.2672 22.203 30.7053 21.1979 30.7909C20.1929 30.8765 19.1899 30.604 18.3663 30.0216C17.5427 29.4392 16.9515 28.5844 16.6972 27.6082C16.4429 26.6321 16.5419 25.5975 16.9767 24.6872L14.126 21.8365C13.4742 22.1476 12.7542 22.2885 12.0332 22.2461C11.3123 22.2037 10.6138 21.9793 10.0029 21.594C9.3921 21.2087 8.88881 20.6749 8.54002 20.0425C8.19123 19.4101 8.0083 18.6996 8.0083 17.9774C8.0083 17.2552 8.19123 16.5447 8.54002 15.9123C8.88881 15.2799 9.3921 14.7462 10.0029 14.3608C10.6138 13.9755 11.3123 13.7512 12.0332 13.7088C12.7542 13.6663 13.4742 13.8072 14.126 14.1183L16.9767 11.269C16.7013 10.6937 16.5586 10.0639 16.5591 9.42605ZM12.283 16.5528C11.905 16.5528 11.5424 16.703 11.2751 16.9703C11.0078 17.2376 10.8577 17.6001 10.8577 17.9781C10.8577 18.3562 11.0078 18.7187 11.2751 18.986C11.5424 19.2533 11.905 19.4035 12.283 19.4035C12.661 19.4035 13.0236 19.2533 13.2909 18.986C13.5582 18.7187 13.7084 18.3562 13.7084 17.9781C13.7084 17.6001 13.5582 17.2376 13.2909 16.9703C13.0236 16.703 12.661 16.5528 12.283 16.5528ZM20.8351 25.1049C20.6479 25.1044 20.4624 25.1411 20.2894 25.2128C20.1165 25.2845 19.9594 25.3897 19.8274 25.5225C19.5942 25.7557 19.4492 26.0625 19.4169 26.3907C19.3846 26.7189 19.4671 27.0481 19.6504 27.3223C19.8337 27.5965 20.1063 27.7986 20.4219 27.8943C20.7375 27.9899 21.0765 27.9732 21.3811 27.847C21.6857 27.7207 21.9372 27.4927 22.0926 27.2019C22.248 26.911 22.2977 26.5753 22.2333 26.2519C22.1689 25.9285 21.9944 25.6374 21.7394 25.4282C21.4845 25.2191 21.1649 25.1048 20.8351 25.1049Z" fill="#A09FAF"/>
</svg>
